<svg xmlns="http://www.w3.org/2000/svg" width="61" height="74" viewBox="0 0 61 74"><defs><clipPath id="zz4ka"><path d="M-6.68 36.83h63.454v17.6H-6.68z"/></clipPath><clipPath id="zz4kb"><path d="M7.75 18.72h53.265v22.5H7.75z"/></clipPath></defs><g><g transform="scale(1 -1) rotate(-44 -63.361 0)"><g><g/><g clip-path="url(#zz4ka)"><path fill="#fff" d="M55.192 47.821C38.52 37.37 12.467 32.112-5.603 42.366c-1.964 1.116-1.063 4.3 1.257 3.88 9.645-1.749 18.18-4.083 28.155-2.824 9.76 1.232 19.203 4.941 27.428 10.403 3.823 2.54 7.836-3.57 3.955-6.004"/></g></g><g><g/><g clip-path="url(#zz4kb)"><path fill="#fff" d="M59.828 35.937C45.663 25.779 27.264 17.916 9.688 18.786c-2.438.12-2.64 3.401-.242 3.856C26.79 25.935 42.016 30.161 56.7 40.69c2.952 2.117 6.08-2.637 3.128-4.753"/></g></g></g></g></svg>