<svg xmlns="http://www.w3.org/2000/svg" width="84" height="62" viewBox="0 0 84 62"><defs><clipPath id="2le5a"><path d="M0 0h84v62H0z"/></clipPath></defs><g><g transform="matrix(-1 0 0 1 84 0)"><g/><g clip-path="url(#2le5a)"><path fill="#fff" d="M45.959 33.373c.554-.528.916-.842 1.245-1.19 4.292-4.542 8.537-9.13 12.884-13.621 3.513-3.632 7.146-7.15 10.737-10.708.254-.254.585-.429.881-.64l-.212-.338c-.674.187-1.349.37-2.02.561-1.998.571-3.997 1.126-6.11 1.008-.743-.042-1.467-.127-2.04-1.008.427-.279.791-.586 1.208-.777 1.09-.492 2.202-.93 3.303-1.395.424-.179.83-.41 1.265-.553 3.368-1.118 6.66-2.403 9.832-4.013 1.744-.885 3.669-.862 5.537-.31 1.54.456 1.858 1.248 1.223 2.723-.018.042-.036.084-.061.122-1.469 2.162-1.769 4.586-1.572 7.102.236 3.017-.31 5.93-1.095 8.817-.156.575-.305 1.15-.442 1.73-.231.97-.41 1.151-1.32 1.285-1.207.177-2.067-.096-2.427-.836-.199-.407-.333-.855-.44-1.298-.472-1.958-.92-3.922-1.384-5.882-.113-.478-.252-.95-.421-1.578-.28.293-.48.464-.633.671-6.038 8.18-13.042 15.553-19.662 23.247-.209.244-.453.458-.665.7-3.66 4.207-8.38 4.856-13.506 3.829-3.673-.738-5.39-2.907-5.794-6.89-.063-.624-.086-1.252-.14-2.07-.34.248-.565.37-.739.543-7.555 7.527-15.113 15.05-22.65 22.596-1.264 1.266-2.432 2.627-3.698 4l.654.976c-.072.144-.09.269-.156.3-1.776.867-3.555 1.738-5.629 1.477a3.762 3.762 0 0 1-.8-.212c-1.145-.416-1.414-.943-.768-1.966 1.051-1.664 2.12-3.336 3.367-4.858 4.86-5.933 9.742-11.851 14.716-17.69 3.902-4.579 7.946-9.038 11.947-13.534a16.967 16.967 0 0 1 1.902-1.799c3.267-2.685 6.956-2.863 10.824-1.677 1.575.482 2.43 1.657 2.508 3.278.132 2.745.185 5.493.273 8.238.015.44.041.88.078 1.64"/></g></g></g></svg>
