<svg xmlns="http://www.w3.org/2000/svg" width="67" height="101" viewBox="0 0 67 101"><defs><clipPath id="1ejxa"><path d="M-4.85 46.12h32.735v39.509H-4.85z"/></clipPath><clipPath id="1ejxb"><path d="M26.95 13.1h18.54v57.949H26.95z"/></clipPath></defs><g><g transform="rotate(-36 32.825 49.365)"><g><path fill="#fff" d="M27.277 81.51c-2.85-5.724-7.971-10.371-11.967-15.312-4.77-5.897-9.27-11.997-13.579-18.241-2.026-2.938-6.86-.09-4.783 2.807 4.253 5.93 8.673 11.73 13.32 17.353 4.43 5.36 8.954 11.828 15.018 15.392 1.315.773 2.62-.734 1.99-2"/></g><g><g/><g clip-path="url(#1ejxa)"><path fill="#fff" d="M25.48 85.629c-.416 0-.837-.116-1.232-.352-5.148-3.089-9.094-8.117-12.907-12.98a233.474 233.474 0 0 0-2.25-2.836C4.668 63.995.332 58.228-4.16 51.834c-.746-1.063-.894-2.302-.406-3.399.563-1.263 1.867-2.165 3.32-2.297 1.378-.134 2.65.484 3.454 1.676 4.548 6.727 8.939 12.75 13.421 18.41 1.175 1.484 2.484 2.98 3.75 4.427 3.048 3.484 6.2 7.087 8.238 11.265a2.625 2.625 0 0 1-.54 3.053zM-.892 48.161c-.062 0-.122.003-.18.008-.73.066-1.423.525-1.686 1.114-.192.43-.121.887.21 1.358 4.464 6.357 8.77 12.086 13.165 17.517.75.927 1.503 1.888 2.267 2.86 3.7 4.72 7.528 9.599 12.36 12.498.123.074.283.139.464-.035a.57.57 0 0 0 .12-.653h-.001c-1.917-3.933-4.977-7.432-7.937-10.816-1.28-1.465-2.606-2.98-3.811-4.501C9.566 61.809 5.146 55.747.572 48.975z"/></g></g><g><path fill="#fff" d="M44.834 67.047C38.607 50.614 34.94 33.499 33.005 16.05c-.347-3.135-5.225-3.267-5.008 0 1.196 18.055 5.725 35.46 12.645 52.152 1.046 2.523 5.197 1.497 4.192-1.156"/></g><g><g/><g clip-path="url(#1ejxb)"><path fill="#fff" d="M42.418 71.049c-1.228 0-2.484-.652-3.056-2.068-7.12-17.59-11.294-35.223-12.403-52.406-.123-1.874 1.05-3.294 2.852-3.458 1.766-.176 3.746 1.022 3.99 3.28 2.025 18.707 5.78 35.286 11.478 50.685v.002c.582 1.574-.065 3.104-1.576 3.716zm-12.294-55.93a1.3 1.3 0 0 0-.14.007c-.426.038-1.13.26-1.062 1.315 1.096 16.964 5.22 34.381 12.258 51.768.346.856 1.259.936 1.798.718.763-.31.536-.927.46-1.13-5.757-15.56-9.549-32.3-11.593-51.178z"/></g></g><g><path fill="#fff" d="M64.5 17.77c0 11.886.123 23.744.424 35.626.068 2.643 4.084 2.647 4.15 0 .302-11.882.426-23.74.426-35.627 0-3.182-5-3.188-5 0"/></g><g><path fill="#fff" d="M67.002 56.38c-1.493 0-3.029-1.017-3.077-2.96-.286-11.31-.425-22.987-.425-35.703 0-4.45 7-4.448 7 0 0 12.77-.138 24.45-.425 35.703zm-.003-40.057c-.152 0-1.489.04-1.489 1.394 0 12.699.14 24.362.424 35.653.024.965.894 1.013 1.068 1.013.173 0 1.04-.05 1.064-1.013.285-11.238.424-22.9.424-35.653z"/></g></g></g></svg>