<svg xmlns="http://www.w3.org/2000/svg" width="326" height="219" viewBox="0 0 326 219"><g><g clip-path="url(#clip-D4A0E442-CFF2-4E46-94C6-6AF1A2005047)" transform="rotate(3 222.49 451.76)"><path fill="#ebeaf4" d="M178.287 118.678c2.072-1.979 3.425-3.164 4.654-4.47 16.046-17.07 31.911-34.315 48.165-51.192 13.13-13.647 26.715-26.865 40.135-40.244.947-.95 2.184-1.606 3.297-2.403-.269-.422-.53-.847-.798-1.269-2.52.707-5.043 1.392-7.554 2.111-7.467 2.144-14.934 4.23-22.831 3.784-2.78-.157-5.49-.475-7.629-3.784 1.597-1.049 2.958-2.206 4.518-2.92 4.066-1.85 8.224-3.494 12.34-5.246 1.588-.673 3.103-1.536 4.732-2.077 12.589-4.201 24.896-9.03 36.752-15.08 6.52-3.326 13.718-3.24 20.696-1.166 5.763 1.715 6.946 4.689 4.576 10.232-.07.157-.137.318-.232.458-5.49 8.125-6.61 17.237-5.874 26.691.88 11.338-1.163 22.288-4.096 33.135a207.668 207.668 0 0 0-1.65 6.501c-.865 3.652-1.535 4.333-4.931 4.829-4.518.665-7.732-.36-9.072-3.14-.75-1.532-1.25-3.213-1.651-4.878-1.762-7.36-3.438-14.741-5.171-22.106-.418-1.797-.94-3.569-1.576-5.931-1.043 1.103-1.791 1.747-2.366 2.528-22.57 30.735-48.753 58.442-73.495 87.36-.782.92-1.696 1.722-2.486 2.63-13.68 15.808-31.324 18.253-50.482 14.387-13.734-2.772-20.15-10.925-21.664-25.89-.236-2.346-.323-4.709-.521-7.778-1.275.93-2.11 1.392-2.76 2.037-28.246 28.29-56.5 56.562-84.668 84.918-4.728 4.758-9.097 9.872-13.83 15.035.936 1.396 1.726 2.581 2.45 3.664-.273.549-.34 1.012-.588 1.131-6.635 3.255-13.287 6.53-21.04 5.548-1.013-.128-2.022-.442-2.986-.79-4.286-1.569-5.291-3.552-2.875-7.393 3.93-6.253 7.926-12.54 12.584-18.252 18.173-22.3 36.416-44.543 55.011-66.485 14.587-17.207 29.707-33.964 44.657-50.862 2.16-2.437 4.592-4.676 7.115-6.762 12.208-10.09 25.996-10.76 40.458-6.303 5.887 1.813 9.08 6.229 9.379 12.321.492 10.314.69 20.64 1.021 30.958.05 1.652.153 3.305.286 6.163"/></g></g></svg>