<svg xmlns="http://www.w3.org/2000/svg" width="235" height="285" viewBox="0 0 235 285"><g><g clip-path="url(#clip-55BB0634-3151-4C89-AEF3-0AAE49784DBA)"><path fill="#ebeaf4" d="M48.908 97.375c1.159 3.62 1.47 23.28.426 31.83zm22.94 65.951c6.276 3.682 11.196 7.053 14.512 12.306 4.202 6.671 3.398 11.889-2.748 16.886-2.22 1.8-4.814 3.13-8.188 5.277zm12.21 49.904c11.708-3.021 22.794-7.291 31.885-15.677 8.921-8.237 9.379-17.793 3.591-27.455-2.68-4.467-6.63-8.379-10.636-11.794-8.515-7.252-18.69-11.69-29.05-15.661-3.25-1.241-6.494-2.498-9.683-3.719-.178-1.012-.387-1.729-.422-2.446-.662-17.115-1.344-34.23-1.932-51.341-.17-4.948 2.52-8.367 7.238-9.324.958-.193 2.342-.012 3.052.579 6.721 5.523 12.079 12.014 12.635 21.137.414 6.712-2.007 12.605-6.304 17.765-2.192 2.627-2.137 3.809.355 5.215 5.306 2.994 15.225 2.068 18.513-2.269 4.329-5.723 7.27-11.844 7.672-19.147.473-8.576-3.824-15.13-8.563-21.578-6.233-8.489-14.646-12.629-25.136-12.66-3.115-.012-6.23-.004-9.777-.004-.264-2.521-.52-4.853-.75-7.193-1.21-12.822-2.365-25.651-3.654-38.465-.437-4.329-1.73-5.435-5.866-5.774-5.838-.485-8.058 1.548-8.082 7.492-.004 2.387.127 4.786.158 7.18.181 13.074.268 26.156.603 39.23.08 3.316-.981 5.337-3.796 7.16-9.627 6.236-18.576 13.41-25.881 22.288-3.347 4.065-6.284 8.666-8.472 13.455-4.396 9.64-2.054 18.494 5.247 25.773 3.339 3.317 7.435 6.067 11.586 8.332 4.987 2.721 10.4 4.675 15.643 6.932 1.85.796 3.745 1.493 5.673 2.261 1.282 15.87 2.547 31.52 3.805 47.036-.797.225-.986.339-1.152.307a11.877 11.877 0 0 1-1.6-.397c-11.772-3.908-21.51-10.746-28.054-21.283-4.245-6.838-7.592-14.271-10.99-21.594-2.579-5.562-5.646-6.63-11.394-2.966 1.707 11.026 4.672 21.79 9.872 31.843 8.29 16.005 21.454 25.328 39.265 28.121 1.951.307 3.883.733 5.905 1.123 1.128 9.327 2.058 18.293 3.32 27.21a1571.264 1571.264 0 0 0 5.732 37.09c.611 3.652 3.134 4.845 7.613 4.353 3.713-.406 4.632-1.26 4.644-5.369.04-18.41-.024-36.826-.052-55.24-.007-2.908 0-5.819 0-8.872z"/></g><g clip-path="url(#clip-2CF35EBF-19D6-4EB5-8C3E-507340BED062)"><path fill="#ebeaf4" d="M200.647 51.113c-4.38-7.95-2.744-15.362 4.474-20.834zm7.948 29.438a40.994 40.994 0 0 1-.318 1.501zm-.318 1.501l-3.738 17.625c-.31-6.164 2.298-11.392 3.738-17.625zm-8.184-63.031c-16.6 4.292-23.95 20.348-15.819 35.416 3.197 5.915 7.585 11.176 11.825 17.314-1.905 5.367-4.037 11.368-6.164 17.377-.598.012-1.187.028-1.78.04-1.445-3.775-3.225-7.456-4.24-11.345-1.03-3.931-1.3-8.063-1.897-12.03-5.95-1.086-8.862.337-10.787 5.676-2.678 7.397-1.788 14.586 2.791 20.92 2.964 4.097 6.688 7.64 10.85 12.301-1.176 4.226-2.632 9.337-4.01 14.46-.882 3.285-1.932 6.57-2.373 9.926-.383 2.885-.324 6.15 3.1 7.471 3.314 1.278 6.175.18 8.51-2.477 4.91-5.59 8.354-11.983 10.427-19.125.734-2.525 1.335-5.096 1.573-6.014 6.09-3.186 11.048-5.237 15.397-8.184 8.737-5.927 9.557-19.094 2.233-26.358-1.73-1.72-3.673-3.25-5.223-5.107-1.003-1.211-2.276-3.01-2.05-4.3 1.457-8.287 3.291-16.519 5.052-25.001 7.05 3.873 9.834 3.21 14.011-2.733 3.775-5.358 3.447-9.297-1.612-13.35-2.612-2.094-5.712-3.572-8.694-5.387.449-5.597.886-11.109 1.308-16.389C215.08-.712 212.823.16 210.762 6.42c-1.14 3.46-1.928 7.036-3.006 11.058z"/></g></g></svg>