<svg xmlns="http://www.w3.org/2000/svg" width="49" height="63" viewBox="0 0 49 63"><defs><clipPath id="uhyua"><path d="M-.95 29.16h21.963v25.845H-.95z"/></clipPath><clipPath id="uhyub"><path d="M20.56 7.47h12.57v38.353H20.56z"/></clipPath></defs><g><g transform="scale(-1 1) rotate(-23 0 151.022)"><g><path fill="#fff" d="M20.24 52.877c-1.896-3.792-5.304-6.87-7.963-10.143-3.175-3.907-6.168-7.948-9.036-12.085-1.348-1.946-4.565-.059-3.183 1.86a211.475 211.475 0 0 0 8.864 11.496c2.948 3.551 5.958 7.835 9.994 10.196.875.512 1.744-.486 1.324-1.324"/></g><g><g/><g clip-path="url(#uhyua)"><path fill="#fff" d="M19.4 55.005c-.28 0-.562-.076-.827-.23-3.454-2.02-6.101-5.31-8.66-8.49-.509-.632-1.01-1.255-1.509-1.856-2.969-3.576-5.878-7.349-8.892-11.531-.5-.696-.6-1.506-.272-2.224.378-.826 1.253-1.416 2.228-1.502.924-.088 1.777.316 2.317 1.096 3.051 4.4 5.997 8.341 9.005 12.044.788.97 1.666 1.948 2.515 2.895 2.045 2.28 4.16 4.636 5.528 7.37a1.686 1.686 0 0 1-.362 1.996zM1.707 30.495c-.042 0-.082.002-.12.005-.491.044-.957.344-1.133.73-.13.28-.082.58.14.887 2.998 4.16 5.89 7.907 8.841 11.46.504.606 1.01 1.234 1.522 1.87 2.485 3.088 5.056 6.28 8.3 8.176.083.049.19.09.312-.023a.366.366 0 0 0 .08-.427c-1.287-2.572-3.342-4.862-5.33-7.075-.86-.959-1.75-1.95-2.56-2.945-3.03-3.73-5.997-7.696-9.07-12.125z"/></g></g><g><path fill="#fff" d="M32.357 43.436c-4.118-10.862-6.543-22.176-7.821-33.709-.23-2.072-3.455-2.16-3.311 0 .79 11.934 3.785 23.44 8.36 34.473.692 1.668 3.436.99 2.772-.764"/></g><g><g/><g clip-path="url(#uhyub)"><path fill="#fff" d="M31.047 45.823c-.832 0-1.684-.432-2.072-1.368-4.827-11.643-7.657-23.312-8.41-34.685-.082-1.24.713-2.18 1.934-2.289 1.198-.116 2.54.677 2.706 2.17 1.373 12.382 3.919 23.355 7.782 33.547.395 1.043-.044 2.055-1.068 2.46zM22.712 8.806a.904.904 0 0 0-.095.005c-.29.025-.766.171-.72.87.743 11.228 3.54 22.755 8.31 34.262.236.567.855.62 1.22.476.517-.206.363-.614.312-.748-3.903-10.298-6.474-21.378-7.86-33.872z"/></g></g><g><path fill="#fff" d="M45.71 10.41c0 7.957.081 15.895.28 23.849.046 1.77 2.706 1.772 2.75 0 .2-7.954.282-15.892.282-23.85 0-2.13-3.312-2.134-3.312 0"/></g><g><path fill="#fff" d="M47.364 36.256c-.99 0-2.01-.68-2.042-1.979a945.42 945.42 0 0 1-.282-23.866c0-2.975 4.646-2.974 4.646 0 0 8.537-.092 16.344-.282 23.866zM47.362 9.48c-.101 0-.988.026-.988.932 0 8.489.092 16.285.281 23.833.017.645.593.677.709.677.115 0 .69-.033.706-.677.19-7.512.282-15.308.282-23.833z"/></g></g></g></svg>