<svg xmlns="http://www.w3.org/2000/svg" width="63" height="53" viewBox="0 0 63 53"><defs><clipPath id="paeza"><path d="M.35 23.57h56.16v15.216H.35z"/></clipPath><clipPath id="paezb"><path d="M13.75 9.22h47.277v19.486H13.75z"/></clipPath></defs><g><g transform="rotate(49 31.5 26.5)"><g><g/><g clip-path="url(#paeza)"><path fill="#333091" d="M55.11 33.072c-14.756-9.036-37.814-13.58-53.807-4.716-1.738.964-.94 3.718 1.113 3.354 8.536-1.512 16.09-3.53 24.918-2.44 8.638 1.064 16.995 4.27 24.275 8.992 3.384 2.196 6.936-3.086 3.5-5.19"/></g></g><g><g/><g clip-path="url(#paezb)"><path fill="#333091" d="M59.973 24.13C47.4 15.333 31.07 8.524 15.47 9.277c-2.163.104-2.343 2.946-.214 3.34 15.393 2.851 28.908 6.511 41.94 15.63 2.62 1.832 5.397-2.284 2.777-4.117"/></g></g></g></g></svg>