<svg xmlns="http://www.w3.org/2000/svg" width="361" height="16" viewBox="0 0 361 16"><g><g><path fill="#333091" d="M.204 15.98c3.187-1.542 7.765-1.382 11.194-1.684 8.03-.706 16.058-1.464 24.094-2.134 25.4-2.121 50.845-3.833 76.297-5.211 61.477-3.33 123.336-5.405 184.875-2.618 21.448.972 42.671 3.385 63.959 6.01.441.054.508-.708.133-.847C351.71 6.144 342.25 4.824 332.7 3.78c-12.375-1.358-24.813-2.127-37.248-2.684-30.217-1.353-60.5-1.275-90.735-.715-56.57 1.046-113.47 3.225-169.766 9.135-7.963.836-15.922 1.669-23.786 3.2-3.43.668-8.012 1.025-11.069 2.91-.167.104-.11.462.107.356"/></g></g></svg>