<svg xmlns="http://www.w3.org/2000/svg" width="135" height="125" viewBox="0 0 135 125"><defs><clipPath id="96ota"><path d="M14.02 20.67h107.516v83.284H14.02z"/></clipPath></defs><g><g transform="scale(1 -1) rotate(-28 -182.112 0)"><g/><g clip-path="url(#96ota)"><path fill="#fff" d="M58.878 57.538c-.11 1.361-.19 2.75-.517 4.067-1.824 7.32-5.505 13.692-10.166 19.546-.05.062-.132.1-.303.226-.925-1.045-1.478-2.226-1.607-3.634-.43-4.716.611-9.098 2.985-13.164 1.775-3.04 3.896-5.804 6.722-7.962.46-.352.956-.662 1.448-.974.167-.106.368-.16.563-.24zm-42.89 46.32c1.276.091 2.607.166 3.848-.085 2.197-.446 4.39-1.006 6.5-1.759 8.209-2.93 15.536-7.42 22.265-12.915.632-.517 1.226-.696 2.036-.62 4.51.428 8.983.22 13.386-.95 12.466-3.315 22.983-9.814 31.618-19.371 4.899-5.422 8.973-11.362 11.575-18.255 1.783-4.723 2.657-9.62 3.153-14.608.042-.429.097-.855.147-1.28.444.334.612.724.885 1.017.647.695 1.252 1.487 2.035 1.983 2.136 1.35 4.519 1.62 6.98 1.183.392-.07.748-.354 1.12-.539-.33-.779-.922-.848-1.43-.898-1.543-.152-2.508-1.064-3.173-2.338-.577-1.105-1.152-2.23-1.556-3.405-.961-2.79-1.83-5.616-2.717-8.434-.5-1.596-1.349-2.138-2.988-1.85-.924.162-1.6.694-2.099 1.45-.663 1.01-1.284 2.047-1.935 3.062-1.826 2.85-3.78 5.588-6.423 7.77-.736.606-1.393 1.32-2.016 2.044-.512.596-.376 1.01.324 1.39 1.518.824 3.786.383 4.894-.941a324.157 324.157 0 0 1 2.99-3.526c.17-.194.405-.331.69-.561 0 .306.028.475-.004.633-.954 4.696-2.044 9.36-3.652 13.88-2.339 6.578-6.112 12.267-10.777 17.42-6.135 6.775-13.161 12.38-21.382 16.419-3.897 1.912-7.943 3.459-12.227 4.278-1.293.247-2.607.42-4.159.15l1.095-1.19c4.538-4.96 8.323-10.408 10.716-16.736.993-2.628 1.553-5.34 1.492-8.182-.058-2.707-1.409-4.453-3.784-5.51a9.277 9.277 0 0 0-2.013-.652c-4.39-.835-8.432-.052-12.082 2.618-3.769 2.758-6.662 6.268-8.966 10.287-2.174 3.793-3.402 7.835-3.366 12.259.018 2.274.642 4.253 2.033 6.023a11.093 11.093 0 0 0 3.285 2.846c.31.176.605.38 1.124.706-.47.374-.832.652-1.184.944-1.858 1.544-3.649 3.178-5.582 4.62-5.514 4.109-11.476 7.394-18.056 9.49-.84.268-1.661.46-2.569.346-.724-.091-1.506-.06-2.019.697z"/></g></g></g></svg>