<svg xmlns="http://www.w3.org/2000/svg" width="41" height="62" viewBox="0 0 41 62"><defs><clipPath id="qvi7a"><path d="M-3.08 28.47h19.918v23.439H-3.08z"/></clipPath><clipPath id="qvi7b"><path d="M16.42 8.8h11.4v34.782h-11.4z"/></clipPath></defs><g><g transform="rotate(-36 20.5 31)"><g><path fill="#333091" d="M16.13 49.98c-1.72-3.438-4.81-6.23-7.222-9.198-2.88-3.543-5.594-7.208-8.195-10.96-1.223-1.764-4.14-.053-2.886 1.688a191.791 191.791 0 0 0 8.038 10.425c2.674 3.22 5.404 7.106 9.063 9.247.794.464 1.582-.441 1.202-1.201"/></g><g><g/><g clip-path="url(#qvi7a)"><path fill="#333091" d="M15.375 51.909c-.253 0-.51-.07-.75-.209-3.132-1.832-5.533-4.815-7.854-7.7-.46-.573-.915-1.137-1.368-1.683A191.255 191.255 0 0 1-2.66 31.86c-.454-.631-.544-1.366-.247-2.017.343-.749 1.136-1.284 2.02-1.362.839-.08 1.612.287 2.102.994 2.767 3.99 5.439 7.564 8.166 10.922.715.88 1.511 1.767 2.282 2.626 1.854 2.067 3.772 4.204 5.013 6.683.306.613.174 1.34-.329 1.811zM-.672 29.68c-.038 0-.074.002-.11.004-.444.04-.866.312-1.026.662-.117.254-.074.526.128.805a189.377 189.377 0 0 0 8.014 10.392c.457.55.915 1.12 1.38 1.697 2.252 2.8 4.583 5.694 7.523 7.415.076.043.173.082.283-.021a.332.332 0 0 0 .073-.388c-1.167-2.333-3.03-4.409-4.832-6.416-.78-.87-1.586-1.768-2.32-2.67C5.694 37.777 3.004 34.18.22 30.163z"/></g></g><g><path fill="#333091" d="M27.12 41.42c-3.734-9.851-5.934-20.111-7.093-30.57-.208-1.88-3.133-1.96-3.003 0 .717 10.822 3.433 21.256 7.582 31.262.627 1.513 3.116.898 2.514-.693"/></g><g><g/><g clip-path="url(#qvi7b)"><path fill="#333091" d="M25.93 43.582c-.754 0-1.527-.392-1.878-1.241-4.378-10.559-6.944-21.141-7.627-31.455-.075-1.125.647-1.977 1.754-2.076 1.086-.105 2.304.614 2.454 1.969 1.245 11.228 3.553 21.18 7.057 30.422.358.946-.04 1.864-.969 2.231zm-7.558-33.57a.82.82 0 0 0-.087.004c-.262.023-.695.156-.653.79.674 10.181 3.21 20.635 7.537 31.071.214.514.775.562 1.106.431.47-.186.33-.556.283-.678-3.54-9.339-5.871-19.387-7.128-30.718z"/></g></g><g><path fill="#333091" d="M39.23 11.47c0 7.217.074 14.416.254 21.63.041 1.604 2.454 1.606 2.494 0 .181-7.214.256-14.413.256-21.63 0-1.932-3.004-1.935-3.004 0"/></g><g><path fill="#333091" d="M40.738 34.902c-.899 0-1.823-.617-1.852-1.795a857.326 857.326 0 0 1-.256-21.644c0-2.698 4.213-2.697 4.213 0 0 7.742-.083 14.822-.256 21.644zm-.002-24.284c-.092 0-.896.024-.896.846 0 7.698.083 14.768.255 21.613.015.585.538.614.643.614.104 0 .626-.03.64-.614.172-6.813.255-13.882.255-21.613z"/></g></g></g></svg>