<svg xmlns="http://www.w3.org/2000/svg" width="57" height="79" viewBox="0 0 57 79"><defs><clipPath id="j0cza"><path d="M-9.78 38.48h65.366v17.71H-9.78z"/></clipPath><clipPath id="j0czb"><path d="M5.81 21.77h55.027v22.68H5.81z"/></clipPath></defs><g><g transform="rotate(-55 25.53 38.98)"><g><g/><g clip-path="url(#j0cza)"><path fill="#333091" d="M53.957 49.54C36.782 39.023 9.944 33.733-8.67 44.05c-2.023 1.122-1.095 4.327 1.294 3.904 9.936-1.76 18.728-4.108 29.003-2.842 10.055 1.24 19.782 4.972 28.255 10.468 3.938 2.555 8.073-3.593 4.075-6.041"/></g></g><g><g/><g clip-path="url(#j0czb)"><path fill="#333091" d="M59.61 39.124C44.977 28.885 25.97 20.96 7.812 21.836c-2.518.122-2.727 3.429-.25 3.887 17.918 3.32 33.648 7.58 48.817 18.193 3.05 2.133 6.28-2.659 3.231-4.792"/></g></g></g></g></svg>