<svg xmlns="http://www.w3.org/2000/svg" width="127" height="112" viewBox="0 0 127 112"><defs><clipPath id="6bnca"><path d="M11 17h104.738v77.84H11z"/></clipPath></defs><g><g transform="rotate(-21 63.37 55.92)"><g/><g clip-path="url(#6bnca)"><path fill="#333091" d="M68.305 58.899c.691-.663 1.143-1.057 1.552-1.493 5.353-5.703 10.645-11.464 16.065-17.102 4.382-4.56 8.912-8.976 13.388-13.444.318-.318.73-.538 1.1-.803l-.265-.424c-.84.234-1.682.463-2.52.704-2.49.717-4.983 1.414-7.617 1.265-.927-.053-1.83-.159-2.544-1.265.532-.35.986-.736 1.506-.975 1.358-.618 2.745-1.167 4.118-1.752.529-.225 1.035-.514 1.578-.694 4.2-1.404 8.305-3.017 12.26-5.038 2.174-1.111 4.574-1.082 6.903-.39 1.921.573 2.317 1.567 1.525 3.419-.022.053-.044.105-.076.153-1.831 2.714-2.205 5.758-1.96 8.916.294 3.788-.387 7.445-1.365 11.07-.195.722-.38 1.445-.551 2.172-.289 1.218-.512 1.446-1.645 1.613-1.507.222-2.58-.12-3.027-1.049-.249-.511-.415-1.073-.55-1.63-.587-2.459-1.146-4.924-1.725-7.385-.14-.6-.314-1.192-.525-1.98-.348.368-.6.582-.79.842C95.613 43.9 86.88 53.155 78.626 62.815c-.26.307-.566.575-.83.88-4.562 5.28-10.449 6.095-16.84 4.806-4.58-.927-6.72-3.65-7.224-8.65-.078-.784-.108-1.573-.176-2.598-.423.31-.703.463-.92.68-9.42 9.451-18.845 18.896-28.242 28.37-1.576 1.588-3.033 3.297-4.612 5.022.311.466.576.862.816 1.224-.09.182-.113.338-.195.378-2.214 1.087-4.432 2.182-7.018 1.854a4.665 4.665 0 0 1-.997-.266c-1.429-.523-1.764-1.185-.958-2.469 1.31-2.088 2.644-4.188 4.198-6.099 6.06-7.448 12.147-14.879 18.35-22.21 4.865-5.748 9.907-11.346 14.895-16.99.72-.816 1.532-1.564 2.372-2.26 4.074-3.37 8.673-3.594 13.497-2.105 1.964.605 3.029 2.08 3.127 4.116.164 3.445.23 6.895.34 10.342.019.552.052 1.104.097 2.059"/></g></g></g></svg>