<svg xmlns="http://www.w3.org/2000/svg" width="51" height="59" viewBox="0 0 51 59"><defs><clipPath id="lgs0a"><path d="M-5.96 28.86H50.2v15.216H-5.96z"/></clipPath><clipPath id="lgs0b"><path d="M7.43 14.51h47.277v19.486H7.43z"/></clipPath></defs><g><g transform="rotate(-112 24.375 29.295)"><g><g/><g clip-path="url(#lgs0a)"><path fill="#333091" d="M48.8 38.362c-14.756-9.036-37.814-13.58-53.807-4.716-1.738.964-.94 3.718 1.113 3.354 8.536-1.512 16.09-3.53 24.918-2.44 8.638 1.064 16.995 4.27 24.275 8.992 3.384 2.196 6.936-3.086 3.5-5.19"/></g></g><g><g/><g clip-path="url(#lgs0b)"><path fill="#333091" d="M53.653 29.42C41.08 20.623 24.75 13.814 9.15 14.567c-2.163.104-2.343 2.946-.214 3.34 15.393 2.851 28.908 6.511 41.94 15.63 2.62 1.832 5.397-2.284 2.777-4.117"/></g></g></g></g></svg>