<svg xmlns="http://www.w3.org/2000/svg" width="84" height="113" viewBox="0 0 84 113"><defs><clipPath id="ukn7a"><path d="M19.34 5.6h45.613v102.288H19.34z"/></clipPath></defs><g><g transform="rotate(-24 42.145 56.745)"><g/><g clip-path="url(#ukn7a)"><path fill="#c7e8f0" d="M37.307 37.3c.43 1.367.546 8.787.16 12.013zm8.52 24.883c2.331 1.39 4.158 2.661 5.388 4.644 1.562 2.518 1.263 4.486-1.02 6.373-.823.68-1.789 1.18-3.041 1.99zM50.36 81.01c4.348-1.139 8.466-2.749 11.84-5.915 3.312-3.107 3.483-6.712 1.334-10.357-.995-1.686-2.461-3.161-3.95-4.45-3.163-2.736-6.94-4.41-10.788-5.909-1.204-.468-2.41-.94-3.596-1.403-.065-.382-.143-.65-.154-.922-.247-6.458-.5-12.914-.72-19.37-.062-1.867.937-3.156 2.689-3.517.355-.074.87-.004 1.134.217 2.496 2.083 4.485 4.533 4.692 7.975.152 2.532-.747 4.756-2.343 6.702-.813.991-.793 1.437.134 1.967 1.97 1.13 5.652.782 6.873-.855 1.61-2.16 2.7-4.47 2.85-7.225.176-3.234-1.42-5.707-3.179-8.14-2.314-3.203-5.439-4.765-9.335-4.777-1.156-.005-2.313-.001-3.631-.001-.097-.95-.193-1.831-.276-2.713-.452-4.838-.881-9.677-1.36-14.511-.16-1.635-.64-2.05-2.176-2.18-2.17-.182-2.992.584-3.001 2.826-.004.902.045 1.806.057 2.71.068 4.933.1 9.867.224 14.8.03 1.25-.365 2.013-1.41 2.703-3.575 2.353-6.897 5.057-9.61 8.406a23.32 23.32 0 0 0-3.145 5.078c-1.634 3.635-.765 6.977 1.948 9.723 1.238 1.253 2.76 2.288 4.301 3.144 1.853 1.028 3.863 1.765 5.81 2.615.687.3 1.39.563 2.106.853L39.09 76.23c-.295.083-.365.128-.427.116-.2-.039-.4-.086-.593-.152-4.372-1.474-7.987-4.052-10.417-8.029-1.577-2.58-2.82-5.383-4.082-8.148-.959-2.097-2.098-2.499-4.231-1.118.634 4.16 1.736 8.223 3.666 12.014 3.077 6.037 7.966 9.555 14.58 10.61.725.115 1.441.277 2.194.423.417 3.519.763 6.902 1.233 10.266a592.555 592.555 0 0 0 2.128 13.993c.225 1.377 1.164 1.828 2.825 1.642 1.38-.153 1.72-.474 1.724-2.024.018-6.948-.008-13.895-.018-20.843v-3.347z"/></g></g></g></svg>