<svg xmlns="http://www.w3.org/2000/svg" width="171" height="8" viewBox="0 0 171 8"><defs><clipPath id="85z9a"><path d="M.5 0h169.936v7.528H.5z"/></clipPath></defs><g><g><g/><g clip-path="url(#85z9a)"><path fill="#fff" d="M.596 7.519c1.5-.726 3.655-.65 5.27-.793 3.78-.332 7.559-.689 11.341-1.004A1232.632 1232.632 0 0 1 53.123 3.27C82.063 1.704 111.182.727 140.15 2.04c10.097.457 20.088 1.592 30.108 2.827.208.025.24-.333.063-.398-4.258-1.577-8.711-2.198-13.206-2.69-5.826-.639-11.681-1-17.534-1.263-14.225-.636-28.48-.6-42.713-.336-26.63.492-53.415 1.517-79.915 4.298-3.748.393-7.495.785-11.197 1.505-1.614.315-3.771.482-5.21 1.37-.079.048-.052.217.05.167"/></g></g></g></svg>