<svg xmlns="http://www.w3.org/2000/svg" width="50" height="74" viewBox="0 0 50 74"><defs><clipPath id="m9kza"><path d="M-2.94 33.78h24.248v28.534H-2.94z"/></clipPath><clipPath id="m9kzb"><path d="M20.8 9.83h13.879v42.343H20.8z"/></clipPath></defs><g><g transform="rotate(-36 25.01 36.075)"><g><path fill="#fff" d="M20.445 59.964c-2.093-4.186-5.856-7.584-8.791-11.198-3.505-4.313-6.81-8.774-9.977-13.342-1.488-2.148-5.04-.065-3.514 2.054 3.125 4.337 6.372 8.58 9.786 12.691 3.255 3.921 6.579 8.651 11.034 11.258.966.565 1.926-.537 1.462-1.463"/></g><g><g/><g clip-path="url(#m9kza)"><path fill="#fff" d="M19.527 62.314c-.308 0-.62-.084-.913-.254-3.813-2.23-6.736-5.862-9.56-9.374a169.286 169.286 0 0 0-1.667-2.049C4.11 46.69.898 42.525-2.43 37.907c-.552-.768-.662-1.663-.3-2.455.417-.912 1.383-1.563 2.46-1.659 1.02-.096 1.961.35 2.557 1.21 3.37 4.859 6.622 9.21 9.942 13.297.87 1.071 1.84 2.151 2.777 3.197 2.258 2.516 4.593 5.118 6.103 8.136a1.861 1.861 0 0 1-.4 2.204zM-.008 35.254c-.046 0-.09.003-.133.006-.542.048-1.055.38-1.25.805-.142.31-.09.64.156.98 3.308 4.592 6.499 8.73 9.756 12.651.556.67 1.113 1.364 1.68 2.066 2.742 3.408 5.578 6.932 9.158 9.026.092.053.21.1.344-.025a.404.404 0 0 0 .09-.472h-.002c-1.42-2.84-3.688-5.368-5.88-7.811-.95-1.058-1.932-2.152-2.825-3.251-3.345-4.118-6.62-8.496-10.01-13.386z"/></g></g><g><path fill="#fff" d="M33.825 49.538c-4.545-11.992-7.223-24.483-8.634-37.215-.254-2.289-3.814-2.385-3.656 0 .873 13.175 4.18 25.877 9.23 38.059.764 1.841 3.794 1.092 3.06-.844"/></g><g><g/><g clip-path="url(#m9kzb)"><path fill="#fff" d="M32.379 52.173c-.92 0-1.86-.476-2.288-1.51-5.33-12.854-8.454-25.738-9.284-38.293-.092-1.37.786-2.408 2.134-2.528 1.322-.128 2.805.747 2.987 2.397 1.516 13.67 4.327 25.784 8.592 37.036.436 1.151-.049 2.269-1.18 2.716zm-9.203-40.868a1 1 0 0 0-.105.006c-.32.028-.846.19-.795.96.82 12.396 3.907 25.122 9.175 37.827.26.625.943.684 1.347.524.57-.227.4-.677.344-.825-4.31-11.37-7.148-23.601-8.678-37.395z"/></g></g><g><path fill="#fff" d="M48.57 13.086c0 8.785.09 17.549.31 26.33.05 1.954 2.987 1.957 3.035 0 .22-8.781.311-17.545.311-26.33 0-2.352-3.656-2.357-3.656 0"/></g><g><path fill="#fff" d="M50.396 41.617c-1.094 0-2.22-.75-2.255-2.185-.21-8.346-.311-16.965-.311-26.349 0-3.285 5.129-3.283 5.129 0 0 9.425-.101 18.044-.311 26.35zm.003-29.563c-.112 0-1.096.029-1.096 1.029 0 9.372.102 17.98.312 26.313.018.712.658.747.786.747.127 0 .766-.036.783-.747.21-8.294.312-16.9.312-26.313z"/></g></g></g></svg>